{
  "asset": {
    "version": "2.0",
    "generator": "THREE.GLTFExporter r181"
  },
  "scenes": [
    {
      "name": "Scene",
      "nodes": [
        0
      ]
    }
  ],
  "scene": 0,
  "nodes": [
    {
      "name": "testscene.glb",
      "children": [
        1,
        2,
        3,
        4,
        5
      ]
    },
    {
      "name": "Room",
      "extras": {
        "name": "Room"
      },
      "mesh": 0
    },
    {
      "matrix": [
        1,
        0,
        0,
        0,
        0,
        1,
        0,
        0,
        0,
        0,
        1,
        0,
        -8.44339370727539,
        1.0587036609649658,
        -8.485716819763184,
        1
      ],
      "name": "Cube",
      "extras": {
        "name": "Cube"
      },
      "mesh": 1
    },
    {
      "matrix": [
        1,
        0,
        0,
        0,
        0,
        1,
        0,
        0,
        0,
        0,
        1,
        0,
        8.71143627166748,
        1.0675445795059204,
        -8.640898704528809,
        1
      ],
      "name": "Sphere",
      "extras": {
        "name": "Sphere"
      },
      "mesh": 2
    },
    {
      "matrix": [
        1,
        0,
        0,
        0,
        0,
        1,
        0,
        0,
        0,
        0,
        1,
        0,
        -8.318964004516602,
        1.028084635734558,
        8.532271385192871,
        1
      ],
      "name": "Cylinder",
      "extras": {
        "name": "Cylinder"
      },
      "mesh": 3
    },
    {
      "matrix": [
        1,
        0,
        0,
        0,
        0,
        -1.3435885648505064e-7,
        -1.0000001343588565,
        0,
        0,
        1.0000001343588565,
        -1.3435885648505064e-7,
        0,
        0,
        10.23099422454834,
        0,
        1
      ],
      "name": "Point",
      "extras": {
        "name": "Point"
      },
      "extensions": {
        "KHR_lights_punctual": {
          "light": 0
        }
      }
    }
  ],
  "bufferViews": [
    {
      "buffer": 0,
      "byteOffset": 0,
      "byteLength": 240,
      "target": 34962,
      "byteStride": 12
    },
    {
      "buffer": 0,
      "byteOffset": 240,
      "byteLength": 160,
      "target": 34962,
      "byteStride": 8
    },
    {
      "buffer": 0,
      "byteOffset": 400,
      "byteLength": 240,
      "target": 34962,
      "byteStride": 12
    },
    {
      "buffer": 0,
      "byteOffset": 640,
      "byteLength": 60,
      "target": 34963
    },
    {
      "buffer": 0,
      "byteOffset": 700,
      "byteLength": 288,
      "target": 34962,
      "byteStride": 12
    },
    {
      "buffer": 0,
      "byteOffset": 988,
      "byteLength": 192,
      "target": 34962,
      "byteStride": 8
    },
    {
      "buffer": 0,
      "byteOffset": 1180,
      "byteLength": 288,
      "target": 34962,
      "byteStride": 12
    },
    {
      "buffer": 0,
      "byteOffset": 1468,
      "byteLength": 72,
      "target": 34963
    },
    {
      "buffer": 0,
      "byteOffset": 1540,
      "byteLength": 23808,
      "target": 34962,
      "byteStride": 12
    },
    {
      "buffer": 0,
      "byteOffset": 25348,
      "byteLength": 15872,
      "target": 34962,
      "byteStride": 8
    },
    {
      "buffer": 0,
      "byteOffset": 41220,
      "byteLength": 23808,
      "target": 34962,
      "byteStride": 12
    },
    {
      "buffer": 0,
      "byteOffset": 65028,
      "byteLength": 5760,
      "target": 34963
    },
    {
      "buffer": 0,
      "byteOffset": 70788,
      "byteLength": 2304,
      "target": 34962,
      "byteStride": 12
    },
    {
      "buffer": 0,
      "byteOffset": 73092,
      "byteLength": 1536,
      "target": 34962,
      "byteStride": 8
    },
    {
      "buffer": 0,
      "byteOffset": 74628,
      "byteLength": 2304,
      "target": 34962,
      "byteStride": 12
    },
    {
      "buffer": 0,
      "byteOffset": 76932,
      "byteLength": 744,
      "target": 34963
    }
  ],
  "buffers": [
    {
      "byteLength": 77676,
      "uri": "data:application/octet-stream;base64,"
    }
  ],
  "accessors": [
    {
      "bufferView": 0,
      "componentType": 5126,
      "count": 20,
      "max": [
        10,
        9.940680503845215,
        10
      ],
      "min": [
        -10,
        0,
        -10
      ],
      "type": "VEC3"
    },
    {
      "bufferView": 1,
      "componentType": 5126,
      "count": 20,
      "max": [
        1,
        1
      ],
      "min": [
        0,
        0
      ],
      "type": "VEC2"
    },
    {
      "bufferView": 2,
      "componentType": 5126,
      "count": 20,
      "max": [
        1,
        1,
        1
      ],
      "min": [
        -1,
        0,
        -1
      ],
      "type": "VEC3"
    },
    {
      "bufferView": 3,
      "componentType": 5123,
      "count": 30,
      "max": [
        19
      ],
      "min": [
        0
      ],
      "type": "SCALAR"
    },
    {
      "bufferView": 4,
      "componentType": 5126,
      "count": 24,
      "max": [
        1,
        1,
        1
      ],
      "min": [
        -1,
        -1,
        -1
      ],
      "type": "VEC3"
    },
    {
      "bufferView": 5,
      "componentType": 5126,
      "count": 24,
      "max": [
        0.875,
        1
      ],
      "min": [
        0.125,
        0
      ],
      "type": "VEC2"
    },
    {
      "bufferView": 6,
      "componentType": 5126,
      "count": 24,
      "max": [
        1,
        1,
        1
      ],
      "min": [
        -1,
        -1,
        -1
      ],
      "type": "VEC3"
    },
    {
      "bufferView": 7,
      "componentType": 5123,
      "count": 36,
      "max": [
        23
      ],
      "min": [
        0
      ],
      "type": "SCALAR"
    },
    {
      "bufferView": 8,
      "componentType": 5126,
      "count": 1984,
      "max": [
        0.9999997019767761,
        1,
        0.9999993443489075
      ],
      "min": [
        -0.9999990463256836,
        -1,
        -1
      ],
      "type": "VEC3"
    },
    {
      "bufferView": 9,
      "componentType": 5126,
      "count": 1984,
      "max": [
        1,
        1
      ],
      "min": [
        0,
        0
      ],
      "type": "VEC2"
    },
    {
      "bufferView": 10,
      "componentType": 5126,
      "count": 1984,
      "max": [
        0.9904000163078308,
        0.9951000213623047,
        0.9904000163078308
      ],
      "min": [
        -0.9904000163078308,
        -0.9951000213623047,
        -0.9904000163078308
      ],
      "type": "VEC3"
    },
    {
      "bufferView": 11,
      "componentType": 5123,
      "count": 2880,
      "max": [
        1983
      ],
      "min": [
        0
      ],
      "type": "SCALAR"
    },
    {
      "bufferView": 12,
      "componentType": 5126,
      "count": 192,
      "max": [
        1,
        1,
        1
      ],
      "min": [
        -1,
        -1,
        -1
      ],
      "type": "VEC3"
    },
    {
      "bufferView": 13,
      "componentType": 5126,
      "count": 192,
      "max": [
        1,
        0.9900000095367432
      ],
      "min": [
        0,
        0
      ],
      "type": "VEC2"
    },
    {
      "bufferView": 14,
      "componentType": 5126,
      "count": 192,
      "max": [
        0.995199978351593,
        1,
        0.995199978351593
      ],
      "min": [
        -0.995199978351593,
        -1,
        -0.995199978351593
      ],
      "type": "VEC3"
    },
    {
      "bufferView": 15,
      "componentType": 5123,
      "count": 372,
      "max": [
        191
      ],
      "min": [
        0
      ],
      "type": "SCALAR"
    }
  ],
  "materials": [
    {
      "pbrMetallicRoughness": {
        "baseColorFactor": [
          0.5561634302139282,
          0.6898103356361389,
          0.8000000715255737,
          1
        ],
        "metallicFactor": 0,
        "roughnessFactor": 1
      },
      "doubleSided": true,
      "name": "walls"
    },
    {
      "pbrMetallicRoughness": {
        "baseColorFactor": [
          0.5160216093063354,
          0.0730816125869751,
          0,
          1
        ],
        "metallicFactor": 0,
        "roughnessFactor": 1
      },
      "doubleSided": true,
      "name": "Objects"
    }
  ],
  "meshes": [
    {
      "primitives": [
        {
          "mode": 4,
          "attributes": {
            "POSITION": 0,
            "TEXCOORD_0": 1,
            "NORMAL": 2
          },
          "indices": 3,
          "material": 0
        }
      ]
    },
    {
      "primitives": [
        {
          "mode": 4,
          "attributes": {
            "POSITION": 4,
            "TEXCOORD_0": 5,
            "NORMAL": 6
          },
          "indices": 7,
          "material": 1
        }
      ]
    },
    {
      "primitives": [
        {
          "mode": 4,
          "attributes": {
            "POSITION": 8,
            "TEXCOORD_0": 9,
            "NORMAL": 10
          },
          "indices": 11,
          "material": 1
        }
      ]
    },
    {
      "primitives": [
        {
          "mode": 4,
          "attributes": {
            "POSITION": 12,
            "TEXCOORD_0": 13,
            "NORMAL": 14
          },
          "indices": 15,
          "material": 1
        }
      ]
    }
  ],
  "extensions": {
    "KHR_lights_punctual": {
      "lights": [
        {
          "name": "Point",
          "color": [
            1,
            1,
            1
          ],
          "intensity": 250,
          "type": "point"
        }
      ]
    }
  },
  "extensionsUsed": [
    "KHR_lights_punctual"
  ]
}